<?xml version="1.0" encoding="iso-8859-1"?>
<!-- Generator: Adobe Illustrator 19.0.0, SVG Export Plug-In . SVG Version: 6.00 Build 0)  -->
<svg version="1.1" id="Layer_1" xmlns="http://www.w3.org/2000/svg" xmlns:xlink="http://www.w3.org/1999/xlink" x="0px" y="0px"
	 viewBox="0 0 472.12 472.12" style="enable-background:new 0 0 472.12 472.12;" xml:space="preserve">
<g id="XMLID_5_">
	<path style="fill:#FFCD00;" d="M35,121.06c-19.3,0-35,15.7-35,35s15.7,35,35,35h175.02v-70H35z"/>
	<path style="fill:#FFCD00;" d="M130.67,201.06c-19.3,0-35,15.7-35,35s15.7,35,35,35h79.35v-70H130.67z"/>
	<path style="fill:#FFCD00;" d="M168.55,281.06c-19.3,0-35,15.7-35,35s15.7,35,35,35h41.47v-70H168.55z"/>
	<path style="fill:#FFCD00;" d="M210.02,361.06c-19.3,0-35,15.7-35,35s15.7,35,35,35V361.06z"/>
	<path style="fill:#FFCD00;" d="M227.04,41.06c-19.3,0-35,15.7-35,35s15.7,35,35,35h91.43v-70H227.04z"/>
	<path style="fill:#FFDA44;" d="M318.47,121.06v-80h26.08c70.34,0,127.57,57.23,127.57,127.57v134.86
		c0,70.34-57.23,127.57-127.57,127.57H210.02v-310H318.47z"/>
</g>
<g>
</g>
<g>
</g>
<g>
</g>
<g>
</g>
<g>
</g>
<g>
</g>
<g>
</g>
<g>
</g>
<g>
</g>
<g>
</g>
<g>
</g>
<g>
</g>
<g>
</g>
<g>
</g>
<g>
</g>
</svg>
